<?xml version="1.0" encoding="utf-8"?>
<!-- Generator: Adobe Illustrator 21.1.0, SVG Export Plug-In . SVG Version: 6.00 Build 0)  -->
<svg version="1.1" id="Capa_1" xmlns="http://www.w3.org/2000/svg" xmlns:xlink="http://www.w3.org/1999/xlink" x="0px" y="0px"
	 viewBox="0 0 512 512" style="enable-background:new 0 0 512 512;" xml:space="preserve">
<style type="text/css">
	.st0{fill:url(#SVGID_1_);}
</style>
<linearGradient id="SVGID_1_" gradientUnits="userSpaceOnUse" x1="251" y1="48.5313" x2="251" y2="472.8992">
	<stop  offset="0.1477" style="stop-color:#0DA7FF"/>
	<stop  offset="1" style="stop-color:#1EF1F9"/>
</linearGradient>
<path class="st0" d="M338.8,219.8H65.2c-21.7,0-39.2,18.3-39.2,40.9c0,23,17.5,40.9,39.1,40.9h273.6L232.6,403.1
	c-15.2,16-15.2,41.8,0,57.8c15.3,16,40,16,55.4,0v0l176.5-171.3c7.7-7.4,11.5-17.5,11.5-28.6v-0.5c0-11.1-3.8-21.2-11.5-28.6
	L287.9,60.5c-15.3-16-40-16-55.2,0s-15.2,41.8,0,57.8L338.8,219.8"/>
</svg>
