<svg id="Capa_1" data-name="Capa 1" xmlns="http://www.w3.org/2000/svg" xmlns:xlink="http://www.w3.org/1999/xlink" viewBox="0 0 489.4 489.4"><defs><style>.cls-1{fill:url(#Degradado_sin_nombre_16);}</style><linearGradient id="Degradado_sin_nombre_16" x1="244.7" x2="244.7" y2="489.4" gradientUnits="userSpaceOnUse"><stop offset="0.38" stop-color="#0da7ff"/><stop offset="1" stop-color="#1ef1f9"/></linearGradient></defs><title>lock</title><path class="cls-1" d="M99,147v51.1H95.6a38.84,38.84,0,0,0-38.8,38.8V450.6a38.84,38.84,0,0,0,38.8,38.8H393.8a38.84,38.84,0,0,0,38.8-38.8V236.8A38.84,38.84,0,0,0,393.8,198h-1V146.9C392.8,65.9,326.9,0,245.9,0S99,66,99,147ZM267.7,353.2c-3,2.2-3.8,4.3-3.8,7.8.1,15.7.1,31.3.1,47h0c.3,6.5-3,12.9-8.8,15.8-13.7,7-27.4-2.8-27.4-15.8v-.1c0-15.7,0-31.4.1-47.1,0-3.2-.7-5.3-3.5-7.4-14.2-10.5-18.9-28.4-11.8-44.1,6.9-15.3,23.8-24.3,39.7-21.1,17.7,3.6,30,17.8,30.2,35.5C282.5,336,277.6,346,267.7,353.2ZM163.3,147a82.6,82.6,0,1,1,165.2,0v51.1H163.3Z"/></svg>